<mxfile host="app.diagrams.net" modified="2023-02-21T20:22:12.797Z" agent="5.0 (Windows NT 10.0; Win64; x64) AppleWebKit/537.36 (KHTML, like Gecko) Chrome/110.0.0.0 Safari/537.36" etag="2OCJykQymHh345BqO_Tx" version="20.8.21" type="github">
  <diagram name="Page-1" id="6EyblzrIjItD2IjLhD8e">
    <mxGraphModel dx="1184" dy="568" grid="1" gridSize="10" guides="1" tooltips="1" connect="1" arrows="1" fold="1" page="1" pageScale="1" pageWidth="827" pageHeight="1169" math="0" shadow="0">
      <root>
        <mxCell id="0" />
        <mxCell id="1" parent="0" />
        <mxCell id="JC255g4Zn3fgpcR03gjc-1" value="Administrator" style="shape=umlActor;verticalLabelPosition=bottom;verticalAlign=top;html=1;outlineConnect=0;" parent="1" vertex="1">
          <mxGeometry x="70" y="450" width="30" height="60" as="geometry" />
        </mxCell>
        <mxCell id="JC255g4Zn3fgpcR03gjc-3" value="" style="rounded=0;whiteSpace=wrap;html=1;" parent="1" vertex="1">
          <mxGeometry x="240" y="160" width="360" height="790" as="geometry" />
        </mxCell>
        <mxCell id="JC255g4Zn3fgpcR03gjc-7" value="Database" style="shape=cylinder3;whiteSpace=wrap;html=1;boundedLbl=1;backgroundOutline=1;size=15;" parent="1" vertex="1">
          <mxGeometry x="720" y="440" width="60" height="80" as="geometry" />
        </mxCell>
        <mxCell id="JC255g4Zn3fgpcR03gjc-8" value="Login&amp;nbsp;" style="ellipse;whiteSpace=wrap;html=1;" parent="1" vertex="1">
          <mxGeometry x="250" y="205" width="120" height="80" as="geometry" />
        </mxCell>
        <mxCell id="JC255g4Zn3fgpcR03gjc-9" value="Invalid Credentials" style="ellipse;whiteSpace=wrap;html=1;" parent="1" vertex="1">
          <mxGeometry x="450" y="205" width="120" height="80" as="geometry" />
        </mxCell>
        <mxCell id="JC255g4Zn3fgpcR03gjc-10" value="&amp;lt;&amp;lt;extend&amp;gt;&amp;gt;" style="html=1;verticalAlign=bottom;labelBackgroundColor=none;endArrow=open;endFill=0;dashed=1;rounded=0;exitX=1;exitY=0.5;exitDx=0;exitDy=0;entryX=0;entryY=0.5;entryDx=0;entryDy=0;" parent="1" source="JC255g4Zn3fgpcR03gjc-8" target="JC255g4Zn3fgpcR03gjc-9" edge="1">
          <mxGeometry width="160" relative="1" as="geometry">
            <mxPoint x="350" y="375" as="sourcePoint" />
            <mxPoint x="510" y="375" as="targetPoint" />
          </mxGeometry>
        </mxCell>
        <mxCell id="JC255g4Zn3fgpcR03gjc-13" value="" style="endArrow=classic;startArrow=classic;html=1;rounded=0;exitX=1;exitY=0.5;exitDx=0;exitDy=0;" parent="1" source="JC255g4Zn3fgpcR03gjc-9" edge="1">
          <mxGeometry width="50" height="50" relative="1" as="geometry">
            <mxPoint x="410" y="405" as="sourcePoint" />
            <mxPoint x="670" y="245" as="targetPoint" />
          </mxGeometry>
        </mxCell>
        <mxCell id="JC255g4Zn3fgpcR03gjc-14" value="Identity Service" style="shape=cylinder3;whiteSpace=wrap;html=1;boundedLbl=1;backgroundOutline=1;size=15;" parent="1" vertex="1">
          <mxGeometry x="670" y="205" width="60" height="80" as="geometry" />
        </mxCell>
        <mxCell id="JC255g4Zn3fgpcR03gjc-17" value="Search: Contact number of an entity with name" style="ellipse;whiteSpace=wrap;html=1;" parent="1" vertex="1">
          <mxGeometry x="360" y="580" width="120" height="80" as="geometry" />
        </mxCell>
        <mxCell id="JC255g4Zn3fgpcR03gjc-19" value="Search: Emergency numbers of an area based on Area code" style="ellipse;whiteSpace=wrap;html=1;" parent="1" vertex="1">
          <mxGeometry x="360" y="790" width="120" height="80" as="geometry" />
        </mxCell>
        <mxCell id="JC255g4Zn3fgpcR03gjc-20" value="Search: Area code" style="ellipse;whiteSpace=wrap;html=1;" parent="1" vertex="1">
          <mxGeometry x="360" y="680" width="120" height="80" as="geometry" />
        </mxCell>
        <mxCell id="JC255g4Zn3fgpcR03gjc-21" value="" style="endArrow=classic;html=1;rounded=0;entryX=0;entryY=0.5;entryDx=0;entryDy=0;" parent="1" source="JC255g4Zn3fgpcR03gjc-1" target="JC255g4Zn3fgpcR03gjc-17" edge="1">
          <mxGeometry width="50" height="50" relative="1" as="geometry">
            <mxPoint x="160" y="285" as="sourcePoint" />
            <mxPoint x="460" y="475" as="targetPoint" />
          </mxGeometry>
        </mxCell>
        <mxCell id="JC255g4Zn3fgpcR03gjc-22" value="" style="endArrow=classic;html=1;rounded=0;entryX=0;entryY=0.5;entryDx=0;entryDy=0;anchorPointDirection=1;" parent="1" source="JC255g4Zn3fgpcR03gjc-1" target="JC255g4Zn3fgpcR03gjc-8" edge="1">
          <mxGeometry width="50" height="50" relative="1" as="geometry">
            <mxPoint x="410" y="525" as="sourcePoint" />
            <mxPoint x="460" y="475" as="targetPoint" />
          </mxGeometry>
        </mxCell>
        <mxCell id="JC255g4Zn3fgpcR03gjc-24" value="" style="endArrow=classic;html=1;rounded=0;entryX=0.097;entryY=0.189;entryDx=0;entryDy=0;entryPerimeter=0;" parent="1" source="JC255g4Zn3fgpcR03gjc-1" target="JC255g4Zn3fgpcR03gjc-20" edge="1">
          <mxGeometry width="50" height="50" relative="1" as="geometry">
            <mxPoint x="410" y="525" as="sourcePoint" />
            <mxPoint x="460" y="475" as="targetPoint" />
          </mxGeometry>
        </mxCell>
        <mxCell id="JC255g4Zn3fgpcR03gjc-25" value="" style="endArrow=classic;html=1;rounded=0;entryX=0.021;entryY=0.355;entryDx=0;entryDy=0;entryPerimeter=0;" parent="1" source="JC255g4Zn3fgpcR03gjc-1" target="JC255g4Zn3fgpcR03gjc-19" edge="1">
          <mxGeometry width="50" height="50" relative="1" as="geometry">
            <mxPoint x="140" y="335" as="sourcePoint" />
            <mxPoint x="460" y="335" as="targetPoint" />
          </mxGeometry>
        </mxCell>
        <mxCell id="JC255g4Zn3fgpcR03gjc-26" value="" style="endArrow=classic;startArrow=classic;html=1;rounded=0;" parent="1" source="JC255g4Zn3fgpcR03gjc-17" target="JC255g4Zn3fgpcR03gjc-7" edge="1">
          <mxGeometry width="50" height="50" relative="1" as="geometry">
            <mxPoint x="410" y="385" as="sourcePoint" />
            <mxPoint x="460" y="335" as="targetPoint" />
          </mxGeometry>
        </mxCell>
        <mxCell id="JC255g4Zn3fgpcR03gjc-27" value="" style="endArrow=classic;startArrow=classic;html=1;rounded=0;exitX=1;exitY=0.5;exitDx=0;exitDy=0;entryX=0;entryY=0;entryDx=0;entryDy=52.5;entryPerimeter=0;" parent="1" source="JC255g4Zn3fgpcR03gjc-20" target="JC255g4Zn3fgpcR03gjc-7" edge="1">
          <mxGeometry width="50" height="50" relative="1" as="geometry">
            <mxPoint x="483" y="371" as="sourcePoint" />
            <mxPoint x="670" y="395" as="targetPoint" />
          </mxGeometry>
        </mxCell>
        <mxCell id="JC255g4Zn3fgpcR03gjc-28" value="" style="endArrow=classic;html=1;rounded=0;exitX=0.5;exitY=1;exitDx=0;exitDy=0;entryX=0.5;entryY=0;entryDx=0;entryDy=0;" parent="1" source="JC255g4Zn3fgpcR03gjc-20" target="JC255g4Zn3fgpcR03gjc-19" edge="1">
          <mxGeometry width="50" height="50" relative="1" as="geometry">
            <mxPoint x="410" y="385" as="sourcePoint" />
            <mxPoint x="460" y="335" as="targetPoint" />
          </mxGeometry>
        </mxCell>
        <mxCell id="JC255g4Zn3fgpcR03gjc-29" value="" style="endArrow=classic;startArrow=classic;html=1;rounded=0;entryX=0.961;entryY=0.249;entryDx=0;entryDy=0;entryPerimeter=0;exitX=0;exitY=1;exitDx=0;exitDy=-15;exitPerimeter=0;" parent="1" source="JC255g4Zn3fgpcR03gjc-7" target="JC255g4Zn3fgpcR03gjc-19" edge="1">
          <mxGeometry width="50" height="50" relative="1" as="geometry">
            <mxPoint x="410" y="385" as="sourcePoint" />
            <mxPoint x="460" y="335" as="targetPoint" />
          </mxGeometry>
        </mxCell>
        <mxCell id="tUecFBRFa10u4cbNKLqT-4" value="Create: Contact number of an entity with name" style="ellipse;whiteSpace=wrap;html=1;" parent="1" vertex="1">
          <mxGeometry x="354" y="270" width="120" height="80" as="geometry" />
        </mxCell>
        <mxCell id="tUecFBRFa10u4cbNKLqT-6" value="Create: Area code" style="ellipse;whiteSpace=wrap;html=1;" parent="1" vertex="1">
          <mxGeometry x="354" y="360" width="120" height="80" as="geometry" />
        </mxCell>
        <mxCell id="tUecFBRFa10u4cbNKLqT-7" value="Create: Emergency numbers of an area based on Area code" style="ellipse;whiteSpace=wrap;html=1;" parent="1" vertex="1">
          <mxGeometry x="360" y="490" width="120" height="80" as="geometry" />
        </mxCell>
        <mxCell id="tUecFBRFa10u4cbNKLqT-8" value="" style="endArrow=classic;html=1;rounded=0;entryX=0.5;entryY=0;entryDx=0;entryDy=0;" parent="1" target="tUecFBRFa10u4cbNKLqT-7" edge="1">
          <mxGeometry width="50" height="50" relative="1" as="geometry">
            <mxPoint x="420" y="440" as="sourcePoint" />
            <mxPoint x="460" y="-10" as="targetPoint" />
          </mxGeometry>
        </mxCell>
        <mxCell id="tUecFBRFa10u4cbNKLqT-9" value="" style="endArrow=classic;html=1;rounded=0;entryX=0;entryY=0.5;entryDx=0;entryDy=0;entryPerimeter=0;exitX=0.978;exitY=0.34;exitDx=0;exitDy=0;exitPerimeter=0;" parent="1" source="tUecFBRFa10u4cbNKLqT-7" target="JC255g4Zn3fgpcR03gjc-7" edge="1">
          <mxGeometry width="50" height="50" relative="1" as="geometry">
            <mxPoint x="440" y="520" as="sourcePoint" />
            <mxPoint x="490" y="470" as="targetPoint" />
          </mxGeometry>
        </mxCell>
        <mxCell id="tUecFBRFa10u4cbNKLqT-12" value="" style="endArrow=classic;html=1;rounded=0;entryX=0;entryY=0;entryDx=0;entryDy=27.5;entryPerimeter=0;exitX=1;exitY=0.5;exitDx=0;exitDy=0;" parent="1" source="tUecFBRFa10u4cbNKLqT-6" target="JC255g4Zn3fgpcR03gjc-7" edge="1">
          <mxGeometry width="50" height="50" relative="1" as="geometry">
            <mxPoint x="487" y="527" as="sourcePoint" />
            <mxPoint x="730" y="490" as="targetPoint" />
          </mxGeometry>
        </mxCell>
        <mxCell id="tUecFBRFa10u4cbNKLqT-13" value="" style="endArrow=classic;html=1;rounded=0;entryX=0.145;entryY=0;entryDx=0;entryDy=4.35;entryPerimeter=0;exitX=1;exitY=0.5;exitDx=0;exitDy=0;" parent="1" source="tUecFBRFa10u4cbNKLqT-4" target="JC255g4Zn3fgpcR03gjc-7" edge="1">
          <mxGeometry width="50" height="50" relative="1" as="geometry">
            <mxPoint x="484" y="410" as="sourcePoint" />
            <mxPoint x="730" y="478" as="targetPoint" />
          </mxGeometry>
        </mxCell>
      </root>
    </mxGraphModel>
  </diagram>
</mxfile>
